<?xml version="1.0" encoding="UTF-8"?>
<svg width="45px" height="30px" viewBox="0 0 45 30" version="1.1" xmlns="http://www.w3.org/2000/svg" xmlns:xlink="http://www.w3.org/1999/xlink">
    <!-- Generator: Sketch 55.2 (78181) - https://sketchapp.com -->
    <title>Nieky Allen Logo</title>
    <desc>Created with Sketch.</desc>
    <g id="Nieky-Allen-Logo" stroke="none" stroke-width="1" fill="none" fill-rule="evenodd">
        <path d="M0,30 L0,0 L6.81677126,0 L14.4481409,15.0909091 L17.3287671,21.6363636 L17.5088063,21.6363636 C17.408784,20.5858533 17.408784,19.6950307 17.5088063,18.9638958 L17.5088063,16.2733728 L23,16.2733728 L23,30 L16.2035225,30 L8.5518591,15.2272727 L5.67123288,8.77272727 L5.49119374,8.77272727 C5.6412271,10.4090991 5.81376289,12.1666573 6.00880626,14.0454545 C6.20384964,15.9242518 6.30136986,17.7424155 6.30136986,19.5 L6.30136986,30 L0,30 Z" id="N" fill="#FFFFFF" fill-rule="nonzero"></path>
        <polygon id="Path-9" fill="#F35049" points="35.6973274 0 45 30 37.8861916 30 30 0"></polygon>
        <polygon id="Path-10" fill="#F35049" points="29.5001322 16 36.4520735 16 38 21 28 21 28 16"></polygon>
    </g>
</svg>